<svg width="512" height="511" viewBox="0 0 512 511" fill="none" xmlns="http://www.w3.org/2000/svg">
<path fill-rule="evenodd" clip-rule="evenodd" d="M240.799 2.31748C237.156 3.55848 232.431 5.73747 230.299 7.15847C228.167 8.57948 176.101 51.6785 114.597 102.933C28.4604 174.717 2.44442 196.908 1.34742 199.534C-3.75458 211.746 6.35742 224.024 19.4884 221.561C22.3104 221.031 46.2054 201.6 134.047 128.399C195.094 77.5285 246.477 35.0315 248.232 33.9605C252.989 31.0605 259.559 31.3775 264.722 34.7575C267.033 36.2695 309.176 71.0325 358.373 112.007L447.822 186.507L447.623 327.184C447.423 467.552 447.418 467.867 445.361 470.622C444.227 472.141 442.057 474.311 440.539 475.445C437.866 477.442 436.42 477.516 394.851 477.788L351.923 478.069L351.908 387.788C351.892 289.682 351.957 290.927 346.301 279.766C342.918 273.089 332.841 263.012 326.164 259.629C315.544 254.248 312.891 254.037 255.923 254.037C198.955 254.037 196.302 254.248 185.682 259.629C179.005 263.012 168.928 273.089 165.545 279.766C159.889 290.927 159.954 289.682 159.938 387.788L159.923 478.069L116.995 477.788C75.4264 477.516 73.9804 477.442 71.3074 475.445C69.7894 474.311 67.6194 472.141 66.4854 470.622C64.4424 467.887 64.4184 466.927 63.9234 366.106L63.4234 264.35L60.7294 260.819C53.7374 251.654 41.5584 251.919 34.4854 261.392C32.4394 264.132 32.4214 264.914 32.1594 364.777C31.9904 429.235 32.2574 467.397 32.9034 470.954C36.2284 489.272 52.3984 505.494 70.8144 508.986C78.2434 510.395 433.603 510.395 441.032 508.986C459.431 505.497 475.534 489.406 478.924 471.121C479.555 467.716 479.923 419.387 479.923 339.785V213.837L484.984 217.552C491.18 222.1 496.893 223.064 502.338 220.48C510.087 216.803 513.819 207.48 510.613 199.807C509.419 196.95 499.964 188.579 466.596 160.838L424.099 125.507L423.761 94.9275L423.423 64.3485L420.541 60.5715C413.701 51.6075 401.512 51.9895 394.485 61.3885C392.647 63.8465 392.369 65.9925 391.923 81.1205L391.423 98.0955L338.423 53.8965C309.273 29.5865 283.398 8.40047 280.923 6.81647C270.038 -0.150525 253.485 -2.00752 240.799 2.31748ZM310.57 288.078C313.081 289.294 315.792 291.668 317.135 293.828L319.423 297.507L319.694 387.757L319.964 478.007H255.944H191.923V388.719V299.431L194.173 294.969C195.817 291.709 197.625 289.901 200.885 288.257C205.336 286.012 205.466 286.007 255.819 286.007C304.824 286.007 306.416 286.068 310.57 288.078Z" fill="#EE913F"/>
<g style="mix-blend-mode:overlay">
<circle cx="223" cy="379" r="13" fill="#432818"/>
</g>
</svg>
